# xmcd
#
# Track frame offsets:
#	150
#	20223
#	41346
#	65394
#	90492
#	118290
#	137013
#	156336
#	184434
#	208257
#	239730
#
# Disc length: 3669 seconds
#
# Revision: 0
# Processed by: cddbd v1.5.2PL0 Copyright (c) Steve Scherf et al.
# Submitted via: EZCDAudioConverter 4.0.5.1
#
DISCID=a70e530b
DTITLE=Blindside Blues Band - Journey To The Stars
DYEAR=2016
DGENRE=Blues Rock
TTITLE0=Journey To The Stars
TTITLE1=Rock N' Roll Is My Life
TTITLE2=Smokehouse Row
TTITLE3=Calling My Name
TTITLE4=Freight Train
TTITLE5=I'm On Fire
TTITLE6=Shadow In My Dreams
TTITLE7=Fly On High
TTITLE8=Rolling Down The Highway
TTITLE9=Sign Of The Times
TTITLE10=79 Cent Blues
EXTD=
EXTT0=
EXTT1=
EXTT2=
EXTT3=
EXTT4=
EXTT5=
EXTT6=
EXTT7=
EXTT8=
EXTT9=
EXTT10=
PLAYORDER=
